<svg width="88" height="16" viewBox="0 0 88 16" fill="none" xmlns="http://www.w3.org/2000/svg">
<path d="M31.99 8.87201V12.2117H30.4018V11.4828C30.0863 12.016 29.4772 12.2986 28.6179 12.2986C27.2474 12.2986 26.4315 11.5373 26.4315 10.5255C26.4315 9.49216 27.1604 8.77402 28.9443 8.77402H30.293C30.293 8.04515 29.8579 7.62099 28.9443 7.62099C28.3242 7.62099 27.6825 7.8277 27.2581 8.16489L26.649 6.9791C27.2909 6.52218 28.2372 6.27197 29.1728 6.27197C30.9567 6.27225 31.99 7.09883 31.99 8.87201ZM30.293 10.3622V9.76383H29.129C28.3349 9.76383 28.0847 10.0575 28.0847 10.4492C28.0847 10.8734 28.4436 11.1563 29.042 11.1563C29.6079 11.1563 30.0973 10.8951 30.293 10.3622Z" fill="#1253A5"/>
<path d="M43.4116 8.86122V12.2116H41.7147V9.12243C41.7147 8.17611 41.2905 7.74094 40.6051 7.74094C39.8438 7.74094 39.3106 8.23034 39.3106 9.27465V12.2116H37.6137V9.12243C37.6137 8.17611 37.2112 7.74094 36.5041 7.74094C35.7535 7.74094 35.2206 8.23034 35.2206 9.27465V12.2116H33.5237V6.35944H35.1444V7.03381C35.5795 6.5334 36.2322 6.27246 36.9828 6.27246C37.7986 6.27246 38.4948 6.5879 38.9082 7.22979C39.3758 6.63139 40.1375 6.27246 41.0185 6.27246C42.4111 6.27246 43.4116 7.0773 43.4116 8.86122Z" fill="#1253A5"/>
<path d="M50.2682 8.87201V12.2117H48.68V11.4828C48.3645 12.016 47.7554 12.2986 46.896 12.2986C45.5256 12.2986 44.7097 11.5373 44.7097 10.5255C44.7097 9.49216 45.4386 8.77402 47.2225 8.77402H48.5712C48.5712 8.04515 48.1361 7.62099 47.2225 7.62099C46.6024 7.62099 45.9607 7.8277 45.5363 8.16489L44.9272 6.9791C45.5691 6.52218 46.5154 6.27197 47.451 6.27197C49.2349 6.27225 50.2682 7.09883 50.2682 8.87201ZM48.5712 10.3622V9.76383H47.4072C46.6131 9.76383 46.3629 10.0575 46.3629 10.4492C46.3629 10.8734 46.7218 11.1563 47.3202 11.1563C47.8859 11.1563 48.3755 10.8951 48.5712 10.3622Z" fill="#1253A5"/>
<path d="M55.4352 6.39406V7.96052C55.2937 7.94951 55.185 7.93878 55.0545 7.93878C54.1189 7.93878 53.4991 8.88675 53.4991 9.44882V12.2118H51.8021V6.35938H53.4228V7.13173C53.836 6.56609 54.5324 6.39406 55.4352 6.39406Z" fill="#1253A5"/>
<path d="M65.4261 9.28559C65.4261 11.124 64.1533 12.2988 62.5109 12.2988C61.7278 12.2988 61.0966 12.0486 60.6724 11.5374V12.2118H59.0518V3.69189H60.7487V6.97924C61.1839 6.50058 61.782 6.27212 62.5109 6.27212C64.1533 6.27239 65.4261 7.44717 65.4261 9.28559ZM63.7074 9.28559C63.7074 8.27403 63.0655 7.6649 62.2172 7.6649C61.3686 7.6649 60.7269 8.27403 60.7269 9.28559C60.7269 10.2971 61.3688 10.9063 62.2172 10.9063C63.0655 10.9063 63.7074 10.2971 63.7074 9.28559Z" fill="#1253A5"/>
<path d="M71.9983 8.87201V12.2117H70.4101V11.4828C70.0946 12.016 69.4855 12.2986 68.6262 12.2986C67.2557 12.2986 66.4398 11.5373 66.4398 10.5255C66.4398 9.49216 67.1687 8.77402 68.9526 8.77402H70.3013C70.3013 8.04515 69.8662 7.62099 68.9526 7.62099C68.3325 7.62099 67.6908 7.8277 67.2664 8.16489L66.6573 6.9791C67.2992 6.52218 68.2455 6.27197 69.1811 6.27197C70.965 6.27225 71.9983 7.09883 71.9983 8.87201ZM70.3013 10.3622V9.76383H69.1373C68.3432 9.76383 68.093 10.0575 68.093 10.4492C68.093 10.8734 68.4519 11.1563 69.0503 11.1563C69.6162 11.1563 70.1056 10.8951 70.3013 10.3622Z" fill="#1253A5"/>
<path d="M79.5149 8.86122V12.2116H77.818V9.12243C77.818 8.17611 77.3828 7.74094 76.6322 7.74094C75.8163 7.74094 75.2289 8.24135 75.2289 9.31814V12.2116H73.532V6.35944H75.1527V7.04482C75.6096 6.54441 76.295 6.27246 77.0891 6.27246C78.4706 6.27246 79.5149 7.0773 79.5149 8.86122Z" fill="#1253A5"/>
<path d="M83.5614 9.91647L82.7455 10.7213V12.2115H81.0486V6.38525H82.7455V8.70893L85.2256 6.35938H87.2489L84.8124 8.8394L87.4667 12.2115H85.4108L83.5614 9.91647Z" fill="#1253A5"/>
<path d="M0.00537109 0.799805V3.67895V6.53966V9.39926H2.88534V6.53966V3.67895V0.799805H0.00537109Z" fill="url(#paint0_linear_67_6673)"/>
<path d="M22.0534 5.31697C20.9285 4.19559 19.4551 3.63435 17.9803 3.63435C16.506 3.63435 15.032 4.19559 13.9065 5.31697L11.8699 7.34861L9.83359 5.31697C7.58395 3.07338 3.93684 3.07338 1.68748 5.31697C-0.562167 7.56193 -0.562167 11.1991 1.68748 13.443C3.93657 15.6866 7.58395 15.6866 9.83359 13.443L11.3681 11.9126L9.83359 9.37998L11.8699 11.4119L13.9065 13.443C16.1575 15.6866 19.8041 15.6866 22.0537 13.443C24.3034 11.1994 24.3034 7.56193 22.0534 5.31697ZM7.79727 11.4119C7.25337 11.9547 6.53 12.2536 5.7604 12.2536C4.99051 12.2536 4.26742 11.9547 3.72352 11.4119C3.17962 10.8688 2.88042 10.1471 2.88042 9.37998C2.88042 8.6123 3.17935 7.89168 3.72352 7.34861C4.26742 6.80636 4.99051 6.50744 5.7604 6.50744C6.52973 6.50744 7.25337 6.80636 7.79727 7.34861L9.83387 9.37998L7.79727 11.4119ZM20.0166 11.4119C19.473 11.9547 18.7493 12.2536 17.98 12.2536C17.2106 12.2536 16.487 11.9547 15.9431 11.4119L13.9062 9.37998L15.9431 7.34861C16.487 6.80636 17.2106 6.50744 17.98 6.50744C18.749 6.50744 19.473 6.80636 20.0166 7.34861C20.5608 7.89168 20.8611 8.6123 20.8611 9.37998C20.8613 10.1471 20.5608 10.8688 20.0166 11.4119Z" fill="url(#paint1_linear_67_6673)"/>
<path d="M11.8588 7.3376L14.0189 5.1642C14.0189 5.1642 15.5312 3.62884 17.9801 3.62939C19.2033 3.62967 20.7753 4.04282 22.0536 5.31972C22.0536 5.31972 24.1827 7.23411 23.6726 10.2754C23.6726 10.2754 23.4172 12.6629 21.2542 14.1295C20.7285 14.4859 18.4423 15.8457 15.6603 14.6409C15.6603 14.6409 21.1992 13.0274 20.8367 9.11464C20.6798 7.42293 19.1868 6.54763 18.0704 6.51405C18.0704 6.51405 16.8656 6.42624 15.9435 7.35439L13.9113 9.38466L11.8588 7.3376Z" fill="url(#paint2_linear_67_6673)"/>
<path d="M11.3735 11.9218L10.2868 13.0038C10.2868 13.0038 8.86377 14.7574 6.65735 15.082C4.45092 15.4068 2.87317 14.3872 2.87317 14.3872C2.87317 14.3872 0.843727 13.3971 0.161374 10.8034C0.161374 10.8034 -0.00405278 10.237 7.60199e-05 9.39468C7.60199e-05 9.39468 2.29816 12.2543 5.74488 12.2543C5.74488 12.2543 6.85057 12.3278 7.78506 11.4349L9.83349 9.38037L11.3735 11.9218Z" fill="url(#paint3_linear_67_6673)"/>
<path d="M9.8335 9.37988L11.3735 11.9216L11.8698 11.4118L9.8335 9.37988Z" fill="#1253A5"/>
<defs>
<linearGradient id="paint0_linear_67_6673" x1="1.44533" y1="15.3193" x2="1.44533" y2="1.40214" gradientUnits="userSpaceOnUse">
<stop offset="0.4158" stop-color="#6FC05E"/>
<stop offset="0.5325" stop-color="#74C15C"/>
<stop offset="0.6661" stop-color="#82C556"/>
<stop offset="0.8078" stop-color="#98CC4D"/>
<stop offset="0.9545" stop-color="#B8D540"/>
<stop offset="0.9656" stop-color="#BBD63F"/>
</linearGradient>
<linearGradient id="paint1_linear_67_6673" x1="24.3967" y1="15.1212" x2="0.338146" y2="4.09436" gradientUnits="userSpaceOnUse">
<stop offset="0.0877" stop-color="#1253A5"/>
<stop offset="0.3069" stop-color="#348BB8"/>
<stop offset="0.4792" stop-color="#4BB1C4"/>
<stop offset="0.5699" stop-color="#54BFC9"/>
<stop offset="1" stop-color="#BBD63F"/>
</linearGradient>
<linearGradient id="paint2_linear_67_6673" x1="4.64781" y1="0.620128" x2="21.9392" y2="11.9208" gradientUnits="userSpaceOnUse">
<stop offset="0.348" stop-color="#1253A5"/>
<stop offset="0.3634" stop-color="#1156A5"/>
<stop offset="0.624" stop-color="#058BAC"/>
<stop offset="0.7514" stop-color="#009FAF"/>
<stop offset="1" stop-color="#54BFC9"/>
</linearGradient>
<linearGradient id="paint3_linear_67_6673" x1="14.8969" y1="8.56827" x2="3.09627" y2="12.3478" gradientUnits="userSpaceOnUse">
<stop stop-color="#009FAF"/>
<stop offset="0.1604" stop-color="#1CAAB8"/>
<stop offset="0.348" stop-color="#34B3BF"/>
<stop offset="0.5447" stop-color="#46BAC5"/>
<stop offset="0.754" stop-color="#51BEC8"/>
<stop offset="0.9976" stop-color="#54BFC9"/>
</linearGradient>
</defs>
</svg>
