<svg width="161" height="21" viewBox="0 0 161 21" fill="none" xmlns="http://www.w3.org/2000/svg">
<path d="M21.6783 6.86536C22.917 9.35752 22.2879 11.8105 20.8352 13.2719C20.8352 13.2719 22.3917 11.0472 21.5486 8.27454C20.7055 5.50186 17.9687 4.37321 17.612 4.50369C17.2553 4.63417 16.2435 5.0517 15.2578 5.89329C14.3786 6.6439 14.2783 6.73024 14.267 6.74013L14.2655 6.74141C14.2655 6.74141 17.2682 7.23071 18.6172 9.75548C19.9662 12.2802 19.0193 14.5636 17.9687 15.6336C16.9245 16.7035 15.608 17.3428 14.2655 17.382C12.7868 17.4211 11.0423 16.6187 10.1343 15.6205C10.1343 15.6205 12.1837 16.847 13.9996 16.6448C15.2513 16.5078 16.3343 16.2077 17.3201 14.9029C17.7028 14.394 17.8973 13.8395 18.0205 13.2132C18.28 11.8823 18.1243 10.4209 16.8402 9.07046C15.3615 7.51124 12.4755 7.41338 11.7427 7.4199C11.7427 7.4199 11.7453 7.4172 11.7505 7.41195L11.7734 7.38873C11.7834 7.37854 11.7959 7.36597 11.8107 7.35117L11.8617 7.30023C12.3039 6.86076 13.8958 5.32402 15.2383 4.60155C16.7749 3.77464 17.5962 3.62373 17.6364 3.6167C17.6379 3.61643 20.3293 4.13835 21.6783 6.86536ZM9.1161 13.2262C9.34309 13.4676 10.1148 14.2374 11.1006 14.5897C12.4755 15.079 13.377 14.942 13.831 14.8833C14.7714 14.7659 15.4848 14.1135 15.4848 14.1135C15.4848 14.1135 15.7117 14.381 15.7636 14.6484C15.8155 14.9159 15.7636 15.1443 15.7636 15.1443C15.7636 15.1443 15.0113 15.6662 14.2201 15.7575C13.4289 15.8489 12.5015 15.7901 11.5157 15.3335C10.5299 14.8768 9.72572 14.0548 9.38848 13.6046L9.10961 13.2327C9.10313 13.2262 9.10961 13.2197 9.1161 13.2262ZM14.2914 10.6232C14.307 10.6284 14.3143 10.6461 14.3066 10.6597L14.2979 10.6688L14.0191 10.8776C13.6948 11.1125 13.4483 11.5626 13.4483 11.5626C13.4483 11.5626 15.0308 11.6996 15.9452 12.6195C16.8384 13.5116 16.5869 14.8394 16.5747 14.9007L16.5743 14.9022C16.5719 14.8343 16.4814 12.8597 14.1034 12.4107C13.0058 12.2 12.0158 12.2478 11.6172 12.2811L11.5456 12.2875C11.4838 12.2934 11.4457 12.298 11.4347 12.2994L11.4314 12.2998L11.814 11.8823C12.255 11.3995 13.2213 10.6688 13.5521 10.5579C13.818 10.4666 14.1682 10.5775 14.2914 10.6232ZM20.0051 6.59788C20.08 6.64995 20.1509 6.7069 20.2151 6.7711L20.3553 6.66312L20.5498 6.89798L20.4007 7.01443C20.5235 7.23511 20.5789 7.52521 20.5174 7.92877L20.0634 7.76567C20.0634 7.76567 20.1821 7.50493 20.1011 7.24897L19.5828 7.65349C19.6004 7.68779 19.6182 7.72099 19.6354 7.75262C19.7846 8.02663 19.8818 8.43764 19.6873 8.6464C19.4927 8.85517 19.2139 8.95303 18.8961 8.78341C18.7454 8.70298 18.6166 8.5976 18.5124 8.48956L18.3707 8.60074L18.1502 8.35935L18.3103 8.23525C18.2912 8.2054 18.2746 8.17697 18.2605 8.15058C18.1632 7.96791 18.1113 7.64172 18.1762 7.26333L18.6237 7.46557C18.6237 7.46557 18.5632 7.73006 18.6363 7.98511L19.1696 7.57501L19.126 7.47729C19.0083 7.2114 18.9106 6.95608 19.0193 6.75446C19.2722 6.29126 19.6354 6.34345 20.0051 6.59788ZM12.8128 8.08534L11.9956 8.73122L8.00061 8.08534H12.8128ZM19.2944 7.87924L18.7981 8.26686C18.8125 8.28087 18.8278 8.29434 18.8442 8.30716C19.2009 8.58117 19.3565 8.36587 19.3565 8.19625C19.3565 8.09438 19.3316 7.98773 19.2944 7.87924ZM19.4733 6.88494C19.3737 6.99991 19.3915 7.17603 19.4529 7.35695L19.9328 6.98815C19.7386 6.79364 19.5468 6.79961 19.4733 6.88494Z" fill="#93BB4D"/>
<path d="M14.2909 8.14218C14.6217 8.1487 14.8941 8.40314 14.8941 8.40314C14.8941 8.40314 14.8617 8.42271 14.5115 8.65757C14.1612 8.89244 13.8175 9.27083 13.8175 9.27083C13.8175 9.27083 14.4531 9.36216 14.9979 9.53178C15.5491 9.70141 16.3663 10.1842 16.9435 11.1432C17.5142 12.1022 17.4299 13.4135 17.4299 13.4135C17.4558 13.0678 16.6905 10.8627 14.7644 10.2494C13.0911 9.72098 11.4049 10.1516 11.4049 10.1516C11.4049 10.1516 11.4589 10.095 11.5487 10.0037L11.664 9.88746C11.9352 9.61612 12.3706 9.19537 12.728 8.91853C13.2922 8.48143 13.9602 8.13566 14.2909 8.14218ZM11.606 9.16644L10.8148 10.0472L4.66663 9.16644H11.606Z" fill="#467CB8"/>
<path d="M27.4693 6.2935C28.1114 6.33264 28.4421 6.44028 28.374 6.79258L28.1308 8.03539H29.5317C29.555 8.03539 29.6282 8.04792 29.6565 8.06796L29.6678 8.08432C29.6944 8.44018 29.5762 8.96587 29.401 9.30848L29.3468 9.40543H27.8681L27.2553 12.3706C27.2553 12.3706 27.0121 13.31 27.5763 13.3492C27.9071 13.3687 28.1989 13.2904 28.3837 13.2219C28.5005 13.1828 28.6172 13.2611 28.6269 13.3785C28.6561 13.7015 28.6367 14.2788 28.1989 14.6115C27.5569 15.1106 25.9031 14.729 25.6501 14.2886C25.3972 13.8482 25.475 13.1534 25.5723 12.3999C25.6088 12.121 25.7 11.6247 25.7998 11.1132L25.8501 10.8572C26.0021 10.0908 26.156 9.36628 26.156 9.36628H25.2708V9.0727C25.2708 8.73346 25.3553 8.40967 25.5244 8.12198L25.5918 8.01582H26.4284L26.7494 6.55772C26.7494 6.55772 26.8175 6.26414 27.4693 6.2935ZM32.1388 8.02561C32.2665 8.05986 32.3569 8.16903 32.371 8.29413L32.3723 8.34854L31.6621 12.0574C31.6621 12.0574 31.4384 13.1926 32.0123 13.31C32.596 13.4274 33.4132 12.7718 33.8023 11.8911C34.1233 11.1473 34.5027 9.04334 34.6194 8.3779C34.6361 8.26886 34.7028 8.17419 34.7951 8.11856L34.8432 8.09411L34.9613 8.05021C35.3195 7.93097 35.7102 7.92428 36.0749 8.04088L36.1954 8.08432L36.2148 8.09411C36.2982 8.12766 36.353 8.21154 36.3547 8.30261L36.351 8.34854L35.1642 14.3963C35.1383 14.5441 35.0201 14.6533 34.878 14.6758L34.8237 14.68H34.026C33.8105 14.68 33.6447 14.4966 33.6588 14.2914L33.6661 14.2397L33.7634 13.7406C33.7731 13.7015 33.7245 13.6819 33.705 13.7112C33.491 13.9755 32.9268 14.592 32.0999 14.7485C31.0395 14.9541 30.2515 14.6213 29.911 13.8287C29.6464 13.2298 30.1371 10.8264 30.3928 9.68728L30.4353 9.5C30.4881 9.26945 30.5247 9.11888 30.5322 9.08827L30.5336 9.08249L30.7087 8.39747C30.7623 8.18218 30.8485 8.03267 31.1322 7.9791L31.2146 7.96689L31.3702 7.95561C31.6294 7.9427 31.8875 7.96037 32.1388 8.02561ZM46.864 7.84894L46.9601 7.84929C46.9644 7.84946 46.9702 7.84955 46.9812 7.85013L47.029 7.85377C47.2044 7.87058 47.7046 7.95245 48.122 8.34854C48.3088 8.52582 48.4331 8.65043 48.5155 8.73727L48.5209 8.71062L48.6376 8.25068C48.6765 8.10389 48.8127 7.99625 48.9684 7.99625H49.8147C49.9995 7.99625 50.1455 8.1724 50.1066 8.34854L48.9295 14.3278C48.8905 14.5039 48.7446 14.6311 48.5695 14.6311L47.7037 14.6409C47.4897 14.6409 47.334 14.4452 47.3827 14.2397L47.5211 13.6385C47.3697 13.8305 46.6 14.7485 45.7289 14.7485C44.8488 14.7485 44.4225 14.6044 44.3493 14.5769L44.3378 14.5724C44.3378 14.5724 43.4915 14.2495 43.4331 12.7131C43.3747 11.1767 44.0168 9.39564 44.8826 8.59319C45.5991 7.9291 46.5555 7.85481 46.864 7.84894ZM41.1788 7.85977L41.322 7.8602L41.468 7.86903C42.4506 7.9571 42.8883 8.53448 42.9175 9.51307C42.937 10.3449 42.2657 13.447 42.0614 14.3767C42.0268 14.5159 41.9154 14.6164 41.7817 14.637L41.7307 14.6409H40.5341C40.4174 14.6409 40.3396 14.5333 40.359 14.4256C40.4271 14.088 40.5682 13.3956 40.7129 12.6764L40.7917 12.2833C40.9093 11.6957 41.021 11.13 41.0886 10.7657C41.2832 9.68922 41.0011 9.44457 40.573 9.38585C40.145 9.32714 39.2695 10.1394 38.9776 10.6776C38.8609 10.8978 38.6858 11.5975 38.5204 12.3485L38.4503 12.6723C38.3121 13.3212 38.1883 13.9629 38.1216 14.3278C38.087 14.4843 37.9601 14.6022 37.8094 14.6265L37.7519 14.6311H36.6721C36.532 14.6311 36.4234 14.5201 36.4244 14.3838L36.4289 14.3375L37.5184 8.43662C37.5444 8.26264 37.6625 8.12733 37.832 8.07192L37.8978 8.05497L38.0259 8.03342C38.2827 7.99868 38.543 8.01416 38.7944 8.084L38.9193 8.12347L38.9387 8.13325C39.0138 8.15842 39.0602 8.22672 39.0597 8.30118L39.0555 8.33876L38.9387 9.11185C38.9387 9.12163 38.9582 9.13142 38.9679 9.12163C39.0263 9.02377 39.143 8.82805 39.3181 8.65191C39.6421 8.32604 40.3285 7.88126 41.1788 7.85977ZM52.6638 7.96047L52.7818 7.99625L52.8375 8.02001C52.9613 8.08485 53.0393 8.21283 53.0395 8.3487L53.0347 8.40726L51.916 14.2397C51.8806 14.4532 51.7005 14.6101 51.4926 14.6369L51.4296 14.6409H50.4568C50.2992 14.6409 50.181 14.5062 50.1802 14.3579L50.1844 14.3082L51.3712 8.31919C51.3967 8.19074 51.4893 8.07729 51.6098 8.02471L51.663 8.00603L51.809 7.96689C52.0899 7.88983 52.3857 7.88769 52.6638 7.96047ZM45.583 10.4329C45.2522 11.1571 45.2231 11.617 45.2036 11.6855C45.1841 11.754 45.0577 12.5174 45.3009 12.9675C45.4371 13.2219 45.7776 13.3981 46.1861 13.2709C46.5792 13.1485 47.2333 12.7816 47.5942 11.9001L47.5773 11.8911C47.5773 11.8911 47.9761 10.844 48.015 10.3644C48.0222 10.2761 48.0208 10.1983 48.0137 10.1303C47.9917 10.0489 47.9524 9.97109 47.8983 9.90451C47.7329 9.699 47.4216 9.38585 47.013 9.35649C46.3807 9.30757 45.9137 9.70879 45.583 10.4329ZM53.1125 5.33447C53.5211 5.33447 53.813 5.74548 53.667 6.12713L53.5017 6.58707C53.3946 6.91001 53.0833 7.13509 52.7429 7.13509H52.1397C51.7895 7.13509 51.5658 6.90022 51.5269 6.55772C51.5171 6.42071 51.5366 6.28371 51.5852 6.15649L51.6533 5.96077C51.7895 5.57912 52.1397 5.33447 52.5386 5.33447H53.1125Z" fill="#93BB4D"/>
<path d="M61.6721 7.99403C61.9055 7.99403 62.0806 8.20932 62.032 8.4344C61.8472 9.31513 61.4483 11.2625 61.2635 12.1139C61.0203 13.2393 61.5942 13.3078 61.5942 13.3078C62.4795 13.3372 63.0632 12.5836 63.3356 12.1237C63.429 11.9749 63.4974 11.8137 63.546 11.6499L63.5788 11.5268L64.3376 8.3659C64.3813 8.17213 64.5433 8.02593 64.7384 7.99863L64.8045 7.99403H65.6119C65.8649 7.99403 66.0591 8.21342 66.0388 8.45631L66.0303 8.51269L64.824 14.3549C64.798 14.5028 64.6722 14.6197 64.5215 14.6439L64.464 14.6485H63.6858C63.5178 14.6485 63.3819 14.5029 63.3878 14.3367L63.3939 14.2864L63.5496 13.5329L62.7908 14.2668C62.7908 14.2668 62.7727 14.2816 62.7384 14.3065L62.6752 14.3507C62.3636 14.5613 61.4621 15.0702 60.4658 14.7072C59.2667 14.2703 59.5155 12.681 59.5312 12.5879L59.5319 12.5836L60.2907 8.5029C60.3446 8.2319 60.5642 8.02762 60.8272 7.99779L60.8938 7.99403H61.6721ZM56.2535 5.22461C56.478 5.22461 56.6445 5.40805 56.6305 5.621L56.6232 5.67476L55.6407 10.4601C55.6329 10.4836 55.6562 10.5071 55.6808 10.5005L55.699 10.4894L57.81 8.32675C58.0576 8.06876 58.3857 7.92399 58.7283 7.91451L58.8315 7.91574L59.5124 7.9451C59.8043 7.96345 59.9422 8.29143 59.782 8.50975L59.7459 8.55183L57.4306 10.8613C57.3917 10.9005 57.3777 10.9584 57.3886 11.0151L57.4014 11.057L58.8023 13.9635C58.9579 14.2858 58.7517 14.6515 58.4105 14.6934L58.3451 14.6974H57.5376C57.2925 14.6974 57.071 14.5706 56.944 14.3597L56.9053 14.2864L55.5823 11.3017C55.5745 11.2782 55.548 11.2798 55.5328 11.2964L55.5239 11.3115L55.0083 14.1983C54.9637 14.4405 54.772 14.6169 54.5381 14.6447L54.4733 14.6485H53.4227C53.2929 14.6485 53.1863 14.5402 53.1847 14.4131L53.1892 14.3647L54.9208 5.54755C54.964 5.38227 55.0995 5.26339 55.2452 5.23214L55.3002 5.22461H56.2535Z" fill="#467CB8"/>
<rect x="73.0403" y="2.3335" width="0.466668" height="16.3333" fill="#CDD0D6"/>
<path d="M84.2869 6.16076C84.4736 6.16076 84.6369 6.16076 84.8002 6.16076C84.6758 6.68965 84.5514 7.21854 84.4269 7.74743C84.3336 8.19076 84.5202 8.40076 84.9869 8.35409C85.3836 8.33076 85.6636 8.07409 85.7569 7.70076C85.8502 7.23409 85.9902 6.60409 86.0835 6.16076C86.0835 6.16076 86.0369 6.13743 86.2702 6.16076C86.4336 6.16076 86.4803 6.16076 86.5969 6.16076C86.5036 6.53409 86.4336 6.90743 86.3402 7.25743C86.2236 7.77076 86.1302 8.30743 85.9902 8.82076C85.7102 9.82409 84.6136 10.2441 83.7269 9.63743C83.6336 9.59076 83.5635 9.52076 83.4702 9.45076C83.5869 9.33409 83.6802 9.21743 83.7736 9.12409C84.1236 9.47409 84.5669 9.56743 85.0102 9.40409C85.4536 9.24076 85.5002 8.82076 85.5936 8.40076C85.5002 8.47076 85.4302 8.51743 85.3835 8.56409C85.0802 8.77409 84.7536 8.86743 84.3803 8.77409C84.0303 8.68076 83.8202 8.42409 83.8902 8.05076C84.0069 7.42076 84.1469 6.79076 84.2869 6.16076Z" fill="#1253A5"/>
<path fill-rule="evenodd" clip-rule="evenodd" d="M81.09 8.47544C81.0667 8.56877 81.0434 8.68544 80.9967 8.8021C80.8567 8.8021 80.6934 8.8021 80.5067 8.8021C80.5845 8.44433 80.6623 8.08655 80.74 7.72877C80.9267 6.93544 81.1367 6.0721 81.3 5.27877C81.3234 5.13877 81.3234 5.1621 81.5334 5.1621C81.6267 5.1621 81.6967 5.1621 81.8134 5.1621C81.7201 5.60544 81.6267 6.02544 81.5101 6.4921C81.7901 6.2121 82.0467 6.0721 82.3967 6.0721C82.9101 6.09544 83.2834 6.39877 83.3767 6.9121C83.4467 7.4021 83.3534 7.8921 83.05 8.3121C82.56 9.0121 81.7434 9.0821 81.1367 8.49877C81.1367 8.47544 81.1134 8.47544 81.09 8.47544ZM82.8634 7.35544C82.8634 6.86544 82.6301 6.5621 82.2567 6.53877C81.86 6.4921 81.4634 6.74877 81.37 7.14544C81.3234 7.4021 81.2767 7.65877 81.2067 7.91544C81.16 8.05544 81.2067 8.12544 81.3 8.19544C81.6267 8.54544 82.1867 8.5221 82.5134 8.19544C82.7701 7.93877 82.8634 7.63544 82.8634 7.35544Z" fill="#1253A5"/>
<path fill-rule="evenodd" clip-rule="evenodd" d="M113.617 11.1786V13.7453H112.38V13.1853C112.147 13.6053 111.68 13.8153 111.027 13.8153C109.977 13.8153 109.347 13.232 109.347 12.462C109.347 11.6686 109.907 11.1086 111.26 11.1086H112.31C112.31 10.5486 111.983 10.222 111.26 10.222C110.793 10.222 110.303 10.3853 109.977 10.642L109.51 9.73198C110 9.38198 110.723 9.19531 111.447 9.19531C112.823 9.19531 113.617 9.82531 113.617 11.1786ZM112.31 12.322V11.8786H111.423C110.793 11.8786 110.607 12.0886 110.607 12.392C110.607 12.7186 110.887 12.952 111.353 12.952C111.773 12.952 112.147 12.742 112.31 12.322Z" fill="#1253A5"/>
<path d="M122.39 11.1786V13.7453H121.083V11.3886C121.083 10.642 120.756 10.3153 120.22 10.3153C119.636 10.3153 119.24 10.6886 119.24 11.5053V13.7453H117.933V11.3886C117.933 10.642 117.63 10.3153 117.07 10.3153C116.51 10.3153 116.09 10.6886 116.09 11.5053V13.7453H114.783V9.26531H116.043V9.77865C116.37 9.38198 116.86 9.19531 117.443 9.19531C118.073 9.19531 118.61 9.42865 118.936 9.91865C119.286 9.47531 119.87 9.19531 120.546 9.19531C121.62 9.19531 122.39 9.80198 122.39 11.1786Z" fill="#1253A5"/>
<path fill-rule="evenodd" clip-rule="evenodd" d="M127.663 11.1786V13.7453H126.426V13.1853C126.193 13.6053 125.726 13.8153 125.073 13.8153C124 13.8153 123.393 13.232 123.393 12.462C123.393 11.6686 123.953 11.1086 125.306 11.1086H126.356C126.356 10.5486 126.006 10.222 125.306 10.222C124.84 10.222 124.35 10.3853 124.023 10.642L123.556 9.73198C124.046 9.38198 124.77 9.19531 125.493 9.19531C126.87 9.19531 127.663 9.82531 127.663 11.1786ZM126.356 12.322V11.8786H125.446C124.84 11.8786 124.653 12.0886 124.653 12.392C124.653 12.7186 124.933 12.952 125.4 12.952C125.82 12.952 126.193 12.742 126.356 12.322Z" fill="#1253A5"/>
<path d="M131.63 9.29042V10.4804C131.514 10.4804 131.42 10.4804 131.327 10.4804C130.604 10.4804 130.137 11.2038 130.137 11.6238V13.7471H128.83V9.26709H130.067V9.85042C130.394 9.40709 130.93 9.29042 131.63 9.29042Z" fill="#1253A5"/>
<path fill-rule="evenodd" clip-rule="evenodd" d="M139.307 11.5052C139.307 12.9052 138.327 13.8152 137.067 13.8152C136.46 13.8152 135.97 13.6286 135.644 13.2319V13.7452H134.407V7.21191H135.714V9.73191C136.04 9.35858 136.507 9.19525 137.067 9.19525C138.327 9.19525 139.307 10.0819 139.307 11.5052ZM137.977 11.5052C137.977 10.7352 137.487 10.2686 136.834 10.2686C136.18 10.2686 135.69 10.7352 135.69 11.5052C135.69 12.2752 136.18 12.7419 136.834 12.7419C137.487 12.7419 137.977 12.2752 137.977 11.5052Z" fill="#1253A5"/>
<path fill-rule="evenodd" clip-rule="evenodd" d="M144.347 11.1786V13.7453H143.133V13.1853C142.877 13.6053 142.41 13.8153 141.757 13.8153C140.707 13.8153 140.077 13.232 140.077 12.462C140.077 11.6686 140.637 11.1086 142.013 11.1086H143.04C143.04 10.5486 142.713 10.222 142.013 10.222C141.523 10.222 141.033 10.3853 140.707 10.642L140.24 9.73198C140.73 9.38198 141.477 9.19531 142.177 9.19531C143.553 9.19531 144.347 9.82531 144.347 11.1786ZM143.04 12.322V11.8786H142.153C141.547 11.8786 141.36 12.0886 141.36 12.392C141.36 12.7186 141.617 12.952 142.083 12.952C142.527 12.952 142.9 12.742 143.04 12.322Z" fill="#1253A5"/>
<path d="M150.134 11.1786V13.7453H148.827V11.3886C148.827 10.642 148.477 10.3153 147.917 10.3153C147.287 10.3153 146.82 10.712 146.82 11.5286V13.7453H145.537V9.26531H146.774V9.77865C147.124 9.40531 147.66 9.19531 148.267 9.19531C149.317 9.19531 150.134 9.80198 150.134 11.1786Z" fill="#1253A5"/>
<path d="M153.237 11.9971L152.607 12.6038V13.7471H151.3V9.26709H152.607V11.0638L154.52 9.26709H156.06L154.193 11.1571L156.223 13.7471H154.66L153.237 11.9971Z" fill="#1253A5"/>
<path d="M89.0464 4.99658V7.18992V9.40658V11.5999H91.2397V9.40658V7.18992V4.99658H89.0464Z" fill="url(#paint0_linear_62_6060)"/>
<path fill-rule="evenodd" clip-rule="evenodd" d="M105.987 14.7021C104.237 16.4288 101.437 16.4288 99.71 14.7021L98.1467 13.1388L96.5833 11.5755L97.7734 13.5121L96.5833 14.7021C94.8567 16.4288 92.0567 16.4288 90.33 14.7021C88.6034 12.9755 88.6034 10.1755 90.33 8.44881C92.0567 6.72214 94.8567 6.72214 96.5833 8.44881L98.1467 10.0121L99.71 8.44881C100.573 7.58548 101.717 7.16548 102.837 7.16548C103.98 7.16548 105.123 7.58548 105.987 8.44881C107.713 10.1755 107.713 12.9755 105.987 14.7021ZM96.5833 11.5755L95.02 10.0121C94.6 9.59214 94.04 9.35881 93.4567 9.35881C92.8734 9.35881 92.3134 9.59214 91.8934 10.0121C91.4734 10.4321 91.24 10.9921 91.24 11.5755C91.24 12.1588 91.4734 12.7188 91.8934 13.1388C92.3134 13.5588 92.8734 13.7921 93.4567 13.7921C94.04 13.7921 94.6 13.5588 95.02 13.1388L96.5833 11.5755ZM105.053 11.5755C105.053 10.9921 104.82 10.4321 104.4 10.0121C104.003 9.59214 103.443 9.35881 102.837 9.35881C102.253 9.35881 101.693 9.59214 101.273 10.0121L99.71 11.5755L101.273 13.1388C101.693 13.5588 102.253 13.7921 102.837 13.7921C103.443 13.7921 104.003 13.5588 104.4 13.1388C104.82 12.7188 105.053 12.1588 105.053 11.5755Z" fill="url(#paint1_linear_62_6060)"/>
<path d="M98.1464 10.0127L99.803 8.33268C99.803 8.33268 100.97 7.16602 102.836 7.16602C103.793 7.16602 104.983 7.46935 105.986 8.44935C105.986 8.44935 107.62 9.91935 107.223 12.276C107.223 12.276 107.013 14.096 105.356 15.216C104.96 15.496 103.21 16.546 101.063 15.6127C101.063 15.6127 105.31 14.376 105.03 11.366C104.913 10.0827 103.77 9.40602 102.906 9.38268C102.906 9.38268 101.996 9.31268 101.273 10.0127L99.7097 11.576L98.1464 10.0127Z" fill="url(#paint2_linear_62_6060)"/>
<path d="M97.7733 13.5328L96.9333 14.3494C96.9333 14.3494 95.8367 15.7028 94.1567 15.9594C92.4533 16.1928 91.24 15.4228 91.24 15.4228C91.24 15.4228 89.6767 14.6528 89.1633 12.6694C89.1633 12.6694 89.0233 12.2261 89.0233 11.5961C89.0233 11.5961 90.7967 13.7894 93.4567 13.7894C93.4567 13.7894 94.2966 13.8361 95.02 13.1594L96.5833 11.5728L97.7733 13.5328Z" fill="url(#paint3_linear_62_6060)"/>
<path d="M96.5833 11.5728L97.7733 13.5328L98.1466 13.1361L96.5833 11.5728Z" fill="#1253A5"/>
<defs>
<linearGradient id="paint0_linear_62_6060" x1="90.143" y1="16.1458" x2="90.143" y2="5.4591" gradientUnits="userSpaceOnUse">
<stop offset="0.4158" stop-color="#6FC05E"/>
<stop offset="0.5325" stop-color="#74C15C"/>
<stop offset="0.6661" stop-color="#82C556"/>
<stop offset="0.8078" stop-color="#98CC4D"/>
<stop offset="0.9545" stop-color="#B8D540"/>
<stop offset="0.9656" stop-color="#BBD63F"/>
</linearGradient>
<linearGradient id="paint1_linear_62_6060" x1="107.786" y1="15.9937" x2="89.2866" y2="7.5257" gradientUnits="userSpaceOnUse">
<stop offset="0.0877" stop-color="#1253A5"/>
<stop offset="0.3069" stop-color="#348BB8"/>
<stop offset="0.4792" stop-color="#4BB1C4"/>
<stop offset="0.5699" stop-color="#54BFC9"/>
<stop offset="1" stop-color="#BBD63F"/>
</linearGradient>
<linearGradient id="paint2_linear_62_6060" x1="92.6052" y1="4.85654" x2="105.882" y2="13.5448" gradientUnits="userSpaceOnUse">
<stop offset="0.348" stop-color="#1253A5"/>
<stop offset="0.3634" stop-color="#1156A5"/>
<stop offset="0.624" stop-color="#058BAC"/>
<stop offset="0.7514" stop-color="#009FAF"/>
<stop offset="1" stop-color="#54BFC9"/>
</linearGradient>
<linearGradient id="paint3_linear_62_6060" x1="100.484" y1="10.9487" x2="91.4072" y2="13.859" gradientUnits="userSpaceOnUse">
<stop stop-color="#009FAF"/>
<stop offset="0.1604" stop-color="#1CAAB8"/>
<stop offset="0.348" stop-color="#34B3BF"/>
<stop offset="0.5447" stop-color="#46BAC5"/>
<stop offset="0.754" stop-color="#51BEC8"/>
<stop offset="0.9976" stop-color="#54BFC9"/>
</linearGradient>
</defs>
</svg>
