<svg width="20" height="20" viewBox="0 0 20 20" fill="none" xmlns="http://www.w3.org/2000/svg">
<path fill-rule="evenodd" clip-rule="evenodd" d="M10 17.5V17.5C5.8575 17.5 2.5 14.1425 2.5 10V10C2.5 5.8575 5.8575 2.5 10 2.5V2.5C14.1425 2.5 17.5 5.8575 17.5 10V10C17.5 14.1425 14.1425 17.5 10 17.5ZM8.93306 7.05806C9.17714 6.81398 9.57286 6.81398 9.81694 7.05806L12.3169 9.55806C12.561 9.80214 12.561 10.1979 12.3169 10.4419L9.81694 12.9419C9.57286 13.186 9.17714 13.186 8.93306 12.9419C8.68898 12.6979 8.68898 12.3021 8.93306 12.0581L10.9911 10L8.93306 7.94194C8.68898 7.69786 8.68898 7.30214 8.93306 7.05806Z" fill="#2F5127"/>
</svg>
