<svg width="24" height="24" viewBox="0 0 24 24" fill="none" xmlns="http://www.w3.org/2000/svg">
<path fill-rule="evenodd" clip-rule="evenodd" d="M12.3981 4.21519L12.4853 4.29289C12.8758 4.68342 12.8758 5.31658 12.4853 5.70711L7.83 10.362L19.0033 10.3626C19.5556 10.3626 20.0033 10.8104 20.0033 11.3626C20.0033 11.8755 19.6173 12.2982 19.12 12.3559L19.0033 12.3626L7.829 12.362L12.4913 17.0242C12.8818 17.4147 12.8818 18.0478 12.4913 18.4384L12.4041 18.5161C12.0115 18.8269 11.4397 18.801 11.0771 18.4384L11.0657 18.4256L5.415 12.777L5.41421 12.7782L4 11.364L11.0598 4.30562L11.0711 4.29289C11.4337 3.93026 12.0055 3.90436 12.3981 4.21519Z" fill="white"/>
</svg>
