<svg width="24" height="24" viewBox="0 0 24 24" fill="none" xmlns="http://www.w3.org/2000/svg">
<g clip-path="url(#clip0_62_6208)">
<path d="M16 0C20.4183 0 24 3.58172 24 8V16C24 20.4183 20.4183 24 16 24H8C3.58172 24 1.28855e-07 20.4183 0 16V8C0 3.58172 3.58172 1.28851e-07 8 0H16ZM7.37695 12.8574C6.61597 12.8574 6 13.4744 6 14.2344V16.623C6 17.384 6.61699 18 7.37598 18H9.76562C10.5256 18 11.1426 17.384 11.1426 16.624V14.2344C11.1426 13.4744 10.5256 12.8574 9.76562 12.8574H7.37695ZM14.2344 12.8574C13.4744 12.8574 12.8574 13.4744 12.8574 14.2344V16.623C12.8574 17.384 13.4734 18 14.2334 18H16.623C17.384 18 18 17.384 18 16.624V14.2344C18 13.4744 17.384 12.8574 16.624 12.8574H14.2344ZM7.37695 6C6.61607 6.00003 6.00015 6.61712 6 7.37598V9.7666C6.00019 10.5264 6.61611 11.1435 7.37598 11.1436H9.76562C10.5255 11.1436 11.1424 10.5264 11.1426 9.7666V7.37695C11.1424 6.61609 10.5255 6 9.76562 6H7.37695ZM15.4287 6C14.0085 6 12.8574 7.15109 12.8574 8.57129C12.8574 9.99147 14.0085 11.1426 15.4287 11.1426C16.8488 11.1425 18 9.9914 18 8.57129C18 7.15116 16.8488 6.00011 15.4287 6Z" fill="#1253A5"/>
</g>
<defs>
<clipPath id="clip0_62_6208">
<rect width="24" height="24" rx="8" fill="white"/>
</clipPath>
</defs>
</svg>
