<svg width="24" height="24" viewBox="0 0 24 24" fill="none" xmlns="http://www.w3.org/2000/svg">
<g clip-path="url(#clip0_62_6200)">
<path d="M16 0C20.4183 0 24 3.58172 24 8V16C24 20.4183 20.4183 24 16 24H8C3.58172 24 1.28855e-07 20.4183 0 16V8C0 3.58172 3.58172 1.28851e-07 8 0H16ZM12 6C11.4085 6 10.9287 6.47979 10.9287 7.07129V10.7139C10.929 10.771 10.9066 10.8258 10.8662 10.8662C10.8258 10.9066 10.771 10.929 10.7139 10.9287H7.07129C6.47979 10.9287 6 11.4085 6 12C6 12.5915 6.47979 13.0713 7.07129 13.0713H10.7139C10.8329 13.0713 10.9287 13.1671 10.9287 13.2861V16.9287C10.9287 17.5202 11.4085 18 12 18C12.5915 18 13.0713 17.5202 13.0713 16.9287V13.2861C13.0713 13.1671 13.1671 13.0713 13.2861 13.0713H16.9287C17.5202 13.0713 18 12.5915 18 12C18 11.4085 17.5202 10.9287 16.9287 10.9287H13.2861C13.229 10.929 13.1742 10.9066 13.1338 10.8662C13.0934 10.8258 13.071 10.771 13.0713 10.7139V7.07129C13.0713 6.47979 12.5915 6 12 6Z" fill="#1253A5"/>
</g>
<defs>
<clipPath id="clip0_62_6200">
<rect width="24" height="24" rx="8" fill="white"/>
</clipPath>
</defs>
</svg>
